<?xml version="1.0" encoding="utf-8"?>
<!-- Generator: Adobe Illustrator 21.0.2, SVG Export Plug-In . SVG Version: 6.00 Build 0)  -->
<svg version="1.1" id="Layer_1" xmlns="http://www.w3.org/2000/svg" xmlns:xlink="http://www.w3.org/1999/xlink" x="0px" y="0px"
	 viewBox="0 0 100 20" style="enable-background:new 0 0 100 20;" xml:space="preserve">
<style type="text/css">
	.st0{fill:#8D9097;}
	.st1{fill:#303235;}
</style>
<path class="st0" d="M47.1,15.6l-5.8-5.8l-4.8,4.8c-0.6,0.6-1.5,0.6-2.1,0s-0.6-1.5,0-2.1l6.9-6.9l5.8,5.8l4.6-4.6
	c0.6-0.6,1.5-0.6,2.1,0s0.6,1.5,0,2.1C53.8,8.9,47.1,15.6,47.1,15.6z"/>
<path class="st1" d="M6.8,12.8c0-0.2,0-0.3-0.1-0.4S6.5,12.1,6.3,12s-0.4-0.2-0.7-0.3s-0.7-0.2-1.1-0.3c-0.6-0.1-1.1-0.3-1.6-0.4
	c-0.5-0.2-0.9-0.4-1.2-0.6S1,9.9,0.8,9.6S0.5,9,0.5,8.6s0.1-0.8,0.3-1.1C1,7.1,1.2,6.8,1.6,6.6C1.9,6.2,2.4,6,2.8,5.9
	c0.5-0.2,1-0.2,1.7-0.2s1.2,0.1,1.8,0.2s1,0.4,1.5,0.6c0.4,0.3,0.6,0.6,0.8,1s0.3,0.8,0.3,1.2H6.7c0-0.2,0-0.4-0.1-0.5
	C6.4,8,6.3,7.8,6.2,7.7C6,7.6,5.7,7.4,5.4,7.4C5.2,7.3,4.9,7.2,4.6,7.2S4,7.2,3.8,7.3C3.5,7.4,3.3,7.5,3.2,7.6
	C2.9,7.7,2.8,7.9,2.7,8C2.6,8.1,2.6,8.3,2.6,8.5s0,0.3,0.1,0.4S2.9,9.2,3,9.3s0.4,0.2,0.6,0.3c0.3,0,0.7,0.1,1.1,0.2
	c0.6,0.1,1.2,0.2,1.8,0.4s0.9,0.4,1.2,0.6C8,11,8.3,11.3,8.5,11.6S9,12.3,9,12.7s-0.1,0.8-0.3,1.2s-0.5,0.7-0.8,0.9
	c-0.4,0.3-0.8,0.5-1.3,0.6s-1.1,0.2-1.8,0.2s-1.3-0.1-2-0.3c-0.5-0.2-1-0.4-1.3-0.7c-0.4-0.3-0.6-0.6-0.8-1s-0.3-0.8-0.3-1.2h2.2
	c0,0.3,0.1,0.5,0.2,0.8s0.3,0.4,0.5,0.5S3.8,13.9,4,14c0.2,0.1,0.5,0,0.7,0c0.7,0,1.2-0.1,1.6-0.3C6.6,13.5,6.8,13.2,6.8,12.8z"/>
<path class="st1" d="M12.1,5.8h5.3v7.9h3v1.8h-8.3v-1.8h3.1V7.6h-3.1C12.1,7.6,12.1,5.8,12.1,5.8z M15,3.3c0-0.3,0.1-0.6,0.3-0.8
	s0.5-0.3,0.9-0.3c0.4,0,0.7,0.1,0.9,0.3s0.3,0.5,0.3,0.8s0,0.6-0.3,0.8s-0.5,0.3-0.9,0.3s-0.7-0.1-0.9-0.3S15,3.7,15,3.3z"/>
<path class="st1" d="M22.6,10.6c0-0.7,0.1-1.4,0.3-2C23.2,8,23.4,7.4,23.8,7s0.7-0.8,1.2-1s1-0.4,1.7-0.4c0.6,0,1.1,0.1,1.6,0.3
	c0.4,0.2,0.8,0.5,1.1,0.8l0.1-1h2v9.4c0,0.6-0.1,1.2-0.3,1.7s-0.5,0.9-0.9,1.3c-0.4,0.3-0.8,0.6-1.5,0.8c-0.5,0.2-1.1,0.3-1.9,0.3
	c-0.3,0-0.6,0-0.9-0.1s-0.7-0.1-1-0.3c-0.3-0.1-0.7-0.3-1-0.5s-0.6-0.5-0.8-0.7l1-1.3c0.4,0.4,0.8,0.7,1.2,0.9s0.9,0.3,1.3,0.3
	s0.7-0.1,1-0.2s0.5-0.3,0.7-0.4c0.2-0.2,0.4-0.4,0.5-0.7s0.2-0.6,0.2-1v-0.7c-0.3,0.3-0.7,0.6-1.1,0.8s-0.9,0.3-1.5,0.3
	s-1.1-0.1-1.7-0.4c-0.5-0.2-0.9-0.6-1.2-1s-0.6-0.9-0.8-1.5s-0.3-1.2-0.3-1.9C22.5,10.8,22.6,10.6,22.6,10.6z M24.8,10.7
	c0,0.4,0,0.8,0.1,1.2s0.2,0.7,0.4,1s0.4,0.5,0.7,0.7s0.6,0.2,1,0.2c0.5,0,0.9-0.1,1.2-0.3s0.6-0.5,0.7-0.8V8.5
	c-0.2-0.3-0.4-0.6-0.7-0.8S27.5,7.4,27,7.4c-0.4,0-0.7,0.1-1,0.2c-0.3,0.2-0.5,0.4-0.7,0.7c-0.2,0.3-0.3,0.6-0.4,1s-0.1,0.8-0.1,1.2
	C24.8,10.5,24.8,10.7,24.8,10.7z"/>
<path class="st1" d="M63.4,15.5c-0.1-0.1-0.1-0.3-0.1-0.4c0-0.2-0.1-0.3-0.1-0.5c-0.1,0.2-0.3,0.3-0.5,0.4s-0.4,0.3-0.6,0.4
	s-0.5,0.2-0.7,0.2c-0.3,0.1-0.5,0.1-0.9,0.1c-0.5,0-1-0.1-1.5-0.2s-0.8-0.3-1.1-0.6S57.3,14.3,57,14c-0.2-0.4-0.2-0.7-0.2-1.1
	c0-1,0.4-1.8,1.2-2.4c0.8-0.5,2-0.8,3.4-0.8H63V8.9c0-0.5-0.2-0.9-0.5-1.2S61.6,7.3,61,7.3c-0.3,0-0.5,0-0.7,0.1s-0.4,0.2-0.5,0.3
	S59.5,8,59.4,8.1c-0.1,0.2-0.1,0.3-0.1,0.5h-2.2c0-0.4,0.1-0.7,0.3-1.1s0.4-0.7,0.8-0.9c0.3-0.3,0.8-0.5,1.2-0.7
	c0.5-0.2,1-0.2,1.8-0.2c0.6,0,1.1,0.1,1.7,0.2c0.5,0.1,0.9,0.3,1.3,0.6s0.6,0.6,0.8,1s0.3,0.9,0.3,1.4v4.3c0,0.4,0,0.8,0.1,1.2
	s0.2,0.6,0.3,0.9v0.2L63.4,15.5L63.4,15.5z M60.7,13.9c0.3,0,0.5,0,0.8-0.1s0.5-0.2,0.7-0.3s0.4-0.2,0.5-0.4s0.3-0.3,0.3-0.4v-1.8
	h-1.5c-0.9,0-1.6,0.1-2,0.4C59.2,11.6,59,12,59,12.5c0,0.2,0,0.4,0.1,0.5s0.2,0.3,0.3,0.4s0.3,0.2,0.5,0.3
	C60.2,13.9,60.4,13.9,60.7,13.9z"/>
<path class="st1" d="M74.7,15.5c-0.1-0.1-0.1-0.3-0.1-0.4c0-0.2-0.1-0.3-0.1-0.5c-0.1,0.2-0.3,0.3-0.5,0.4s-0.4,0.3-0.6,0.4
	s-0.5,0.2-0.7,0.2c-0.3,0.1-0.5,0.1-0.9,0.1c-0.5,0-1-0.1-1.5-0.2c-0.4-0.1-0.8-0.3-1.1-0.6s-0.5-0.6-0.7-0.9
	c-0.2-0.4-0.2-0.7-0.2-1.1c0-1,0.4-1.8,1.2-2.4c0.8-0.5,2-0.8,3.4-0.8h1.7V8.9c0-0.5-0.2-0.9-0.5-1.2s-0.8-0.5-1.6-0.5
	c-0.3,0-0.5,0-0.7,0.1s-0.4,0.2-0.5,0.3S70.9,7.9,70.8,8c-0.1,0.2-0.1,0.3-0.1,0.5h-2.2c0-0.4,0.1-0.7,0.3-1.1s0.4-0.7,0.8-0.9
	C70,6.2,70.5,6,70.9,5.8c0.5-0.2,1-0.2,1.8-0.2c0.6,0,1.1,0.1,1.7,0.2c0.5,0.1,0.9,0.3,1.3,0.6s0.6,0.6,0.8,1s0,1,0,1.5v4.3
	c0,0.4,0,0.8,0.1,1.2s0.2,0.6,0.3,0.9v0.2L74.7,15.5L74.7,15.5z M72.1,13.9c0.3,0,0.5,0,0.8-0.1s0.5-0.2,0.7-0.3s0.4-0.2,0.5-0.4
	s0.3-0.3,0.3-0.4v-1.8H73c-0.9,0-1.6,0.1-2,0.4c-0.5,0.3-0.7,0.7-0.7,1.2c0,0.2,0,0.4,0.1,0.5s0.2,0.3,0.3,0.4s0.3,0.2,0.5,0.3
	C71.5,13.9,71.8,13.9,72.1,13.9z"/>
<path class="st1" d="M80.1,1.8h5.4v11.9h3v1.8H80v-1.8h3.2V3.5H80L80.1,1.8z"/>
<path class="st1" d="M91.5,5.8h5.3v7.9h3v1.8h-8.3v-1.8h3.1V7.6h-3.1C91.5,7.6,91.5,5.8,91.5,5.8z M94.4,3.3c0-0.3,0.1-0.6,0.3-0.8
	s0.5-0.3,0.9-0.3s0.7,0.1,0.9,0.3s0.3,0.5,0.3,0.8s-0.1,0.6-0.3,0.8S96,4.4,95.6,4.4s-0.7-0.1-0.9-0.3S94.4,3.7,94.4,3.3z"/>
</svg>
