<?xml version="1.0" encoding="utf-8"?>
<!-- Generator: Adobe Illustrator 21.0.2, SVG Export Plug-In . SVG Version: 6.00 Build 0)  -->
<svg version="1.1" id="Layer_1" xmlns="http://www.w3.org/2000/svg" xmlns:xlink="http://www.w3.org/1999/xlink" x="0px" y="0px"
	 viewBox="0 0 100 20" style="enable-background:new 0 0 100 20;" xml:space="preserve">
<style type="text/css">
	.st0{fill:#494949;}
</style>
<g>
	<path class="st0" d="M46.7,15.6l-5.8-5.8l-4.8,4.8c-0.6,0.6-1.5,0.6-2.1,0s-0.6-1.5,0-2.1l6.9-6.9l5.8,5.8l4.6-4.6
		c0.6-0.6,1.5-0.6,2.1,0s0.6,1.5,0,2.1L46.7,15.6z"/>
</g>
<g>
	<path class="st0" d="M7.7,12.8c0-0.2,0-0.3-0.1-0.4c-0.1-0.1-0.2-0.3-0.4-0.4c-0.2-0.1-0.4-0.2-0.7-0.3s-0.7-0.2-1.1-0.3
		c-0.6-0.1-1.1-0.3-1.5-0.4c-0.5-0.2-0.9-0.4-1.2-0.6S2.1,9.9,1.9,9.6C1.7,9.3,1.6,9,1.6,8.6s0.1-0.8,0.3-1.1
		c0.2-0.4,0.4-0.7,0.8-0.9C3,6.2,3.5,6,3.9,5.9c0.5-0.2,1-0.2,1.6-0.2s1.2,0.1,1.7,0.2c0.6,0.1,1,0.4,1.4,0.6c0.4,0.3,0.6,0.6,0.8,1
		s0.3,0.8,0.3,1.2H7.6c0-0.2,0-0.4-0.1-0.5C7.3,8,7.2,7.8,7.1,7.7C6.9,7.6,6.7,7.4,6.4,7.4C6.2,7.3,5.9,7.2,5.6,7.2S5,7.2,4.8,7.3
		C4.5,7.4,4.3,7.5,4.2,7.6C4,7.7,3.9,7.9,3.8,8C3.7,8.1,3.7,8.3,3.7,8.5s0,0.3,0.1,0.4C3.9,9,4,9.2,4.1,9.3s0.4,0.2,0.6,0.3
		c0.3,0,0.7,0.1,1.1,0.2C6.4,9.9,7,10,7.5,10.2s0.9,0.4,1.2,0.6C9,11,9.3,11.3,9.5,11.6s0.3,0.7,0.3,1.1c0,0.4-0.1,0.8-0.3,1.2
		S9,14.6,8.7,14.8c-0.4,0.3-0.8,0.5-1.3,0.6s-1.1,0.2-1.7,0.2c-0.7,0-1.3-0.1-1.9-0.3c-0.5-0.2-1-0.4-1.3-0.7
		c-0.4-0.3-0.6-0.6-0.8-1s-0.3-0.8-0.3-1.2h2.1c0,0.3,0.1,0.5,0.2,0.8s0.3,0.4,0.5,0.5c0.2,0.1,0.5,0.2,0.7,0.3s0.5,0,0.7,0
		c0.7,0,1.2-0.1,1.5-0.3C7.5,13.5,7.7,13.2,7.7,12.8z"/>
	<path class="st0" d="M12.8,5.8h5.1v7.9h2.9v1.8h-8v-1.8h3V7.6h-3C12.8,7.6,12.8,5.8,12.8,5.8z M15.6,3.3c0-0.3,0.1-0.6,0.3-0.8
		s0.5-0.3,0.9-0.3s0.7,0.1,0.9,0.3S18,3,18,3.3s0,0.6-0.3,0.8s-0.5,0.3-0.9,0.3s-0.7-0.1-0.9-0.3S15.6,3.7,15.6,3.3z"/>
	<path class="st0" d="M23,10.6c0-0.7,0.1-1.4,0.3-2C23.5,8,23.7,7.4,24.1,7s0.7-0.8,1.2-1s1-0.4,1.6-0.4s1.1,0.1,1.5,0.3
		c0.4,0.2,0.8,0.5,1.1,0.8l0.1-1h1.9v9.4c0,0.6-0.1,1.2-0.3,1.7c-0.2,0.5-0.5,0.9-0.9,1.3c-0.4,0.3-0.8,0.6-1.4,0.8
		c-0.5,0.2-1.1,0.3-1.8,0.3c-0.3,0-0.6,0-0.9-0.1s-0.7-0.1-1-0.3c-0.3-0.1-0.7-0.3-1-0.5s-0.6-0.5-0.8-0.7l1-1.3
		c0.4,0.4,0.8,0.7,1.2,0.9c0.4,0.2,0.9,0.3,1.3,0.3s0.7-0.1,1-0.2s0.5-0.3,0.7-0.4c0.2-0.2,0.4-0.4,0.5-0.7s0.2-0.6,0.2-1v-0.7
		c-0.3,0.3-0.7,0.6-1.1,0.8s-0.9,0.3-1.4,0.3c-0.6,0-1.1-0.1-1.6-0.4c-0.5-0.2-0.9-0.6-1.2-1c-0.3-0.4-0.6-0.9-0.8-1.5
		c-0.2-0.6-0.3-1.2-0.3-1.9L23,10.6L23,10.6z M25.1,10.7c0,0.4,0,0.8,0.1,1.2s0.2,0.7,0.4,1s0.4,0.5,0.7,0.7c0.3,0.2,0.6,0.2,1,0.2
		c0.5,0,0.9-0.1,1.2-0.3c0.3-0.2,0.6-0.5,0.7-0.8V8.5c-0.2-0.3-0.4-0.6-0.7-0.8c-0.3-0.2-0.7-0.3-1.2-0.3c-0.4,0-0.7,0.1-1,0.2
		C26,7.8,25.8,8,25.6,8.3c-0.2,0.3-0.3,0.6-0.4,1s-0.1,0.8-0.1,1.2V10.7z"/>
	<path class="st0" d="M62.3,15.5c-0.1-0.1-0.1-0.3-0.1-0.4c0-0.2-0.1-0.3-0.1-0.5c-0.1,0.2-0.3,0.3-0.5,0.4
		c-0.2,0.1-0.4,0.3-0.6,0.4s-0.5,0.2-0.7,0.2c-0.3,0.1-0.5,0.1-0.9,0.1c-0.5,0-1-0.1-1.4-0.2s-0.8-0.3-1.1-0.6s-0.5-0.6-0.7-0.9
		C56,13.6,56,13.3,56,12.9c0-1,0.4-1.8,1.2-2.4c0.8-0.5,1.9-0.8,3.3-0.8H62V8.9c0-0.5-0.2-0.9-0.5-1.2S60.6,7.3,60,7.3
		c-0.3,0-0.5,0-0.7,0.1s-0.4,0.2-0.5,0.3S58.6,8,58.5,8.1c-0.1,0.2-0.1,0.3-0.1,0.5h-2.1c0-0.4,0.1-0.7,0.3-1.1s0.4-0.7,0.8-0.9
		c0.3-0.3,0.8-0.5,1.2-0.7c0.5-0.2,1-0.2,1.7-0.2c0.6,0,1.1,0.1,1.6,0.2s0.9,0.3,1.3,0.6c0.4,0.3,0.6,0.6,0.8,1
		c0.2,0.4,0.3,0.9,0.3,1.4v4.3c0,0.4,0,0.8,0.1,1.2s0.2,0.6,0.3,0.9v0.2H62.3z M59.7,13.9c0.3,0,0.5,0,0.8-0.1s0.5-0.2,0.7-0.3
		s0.4-0.2,0.5-0.4s0.3-0.3,0.3-0.4v-1.8h-1.4c-0.9,0-1.5,0.1-1.9,0.4c-0.4,0.3-0.6,0.7-0.6,1.2c0,0.2,0,0.4,0.1,0.5s0.2,0.3,0.3,0.4
		c0.1,0.1,0.3,0.2,0.5,0.3C59.2,13.9,59.4,13.9,59.7,13.9z"/>
	<path class="st0" d="M73.2,15.5c-0.1-0.1-0.1-0.3-0.1-0.4c0-0.2-0.1-0.3-0.1-0.5c-0.1,0.2-0.3,0.3-0.5,0.4
		c-0.2,0.1-0.4,0.3-0.6,0.4s-0.5,0.2-0.7,0.2c-0.3,0.1-0.5,0.1-0.9,0.1c-0.5,0-1-0.1-1.4-0.2s-0.8-0.3-1.1-0.6
		c-0.3-0.3-0.5-0.6-0.7-0.9c-0.2-0.4-0.2-0.7-0.2-1.1c0-1,0.4-1.8,1.2-2.4c0.8-0.5,1.9-0.8,3.3-0.8H73V8.9c0-0.5-0.2-0.9-0.5-1.2
		S71.7,7.2,71,7.2c-0.3,0-0.5,0-0.7,0.1s-0.4,0.2-0.5,0.3S69.6,7.9,69.5,8c-0.1,0.2-0.1,0.3-0.1,0.5h-2.1c0-0.4,0.1-0.7,0.3-1.1
		C67.8,7,68,6.7,68.4,6.5c0.3-0.3,0.8-0.5,1.2-0.7c0.5-0.2,1-0.2,1.7-0.2c0.6,0,1.1,0.1,1.6,0.2s0.9,0.3,1.3,0.6
		c0.4,0.3,0.6,0.6,0.8,1s0,1,0,1.5v4.3c0,0.4,0,0.8,0.1,1.2s0.2,0.6,0.3,0.9v0.2C75.4,15.5,73.2,15.5,73.2,15.5z M70.7,13.9
		c0.3,0,0.5,0,0.8-0.1s0.5-0.2,0.7-0.3s0.4-0.2,0.5-0.4s0.3-0.3,0.3-0.4v-1.8h-1.4c-0.9,0-1.5,0.1-1.9,0.4C69.2,11.6,69,12,69,12.5
		c0,0.2,0,0.4,0.1,0.5s0.2,0.3,0.3,0.4c0.1,0.1,0.3,0.2,0.5,0.3C70.1,13.9,70.4,13.9,70.7,13.9z"/>
	<path class="st0" d="M78.4,1.8h5.2v11.9h2.9v1.8h-8.2v-1.8h3.1V3.5h-3.1L78.4,1.8L78.4,1.8z"/>
	<path class="st0" d="M89.4,5.8h5.1v7.9h2.9v1.8h-8v-1.8h3V7.6h-3V5.8z M92.2,3.3c0-0.3,0.1-0.6,0.3-0.8s0.5-0.3,0.9-0.3
		s0.7,0.1,0.9,0.3s0.3,0.5,0.3,0.8s-0.1,0.6-0.3,0.8s-0.5,0.3-0.9,0.3s-0.7-0.1-0.9-0.3S92.2,3.7,92.2,3.3z"/>
</g>
</svg>
