<?xml version="1.0" encoding="UTF-8"?>
<svg enable-background="new 0 0 100 20" version="1.1" viewBox="0 0 100 20" xml:space="preserve" xmlns="http://www.w3.org/2000/svg">
<style type="text/css">
	.st0{fill:#727377;}
	.st1{fill:#FAFBFC;}
</style>
	<path class="st0" d="m47.1 15.6-5.8-5.8-4.8 4.8c-0.6 0.6-1.5 0.6-2.1 0s-0.6-1.5 0-2.1l6.9-6.9 5.8 5.8 4.6-4.6c0.6-0.6 1.5-0.6 2.1 0s0.6 1.5 0 2.1l-6.7 6.7z"/>
	<path class="st1" d="m6.8 12.8c0-0.2 0-0.3-0.1-0.4s-0.2-0.3-0.4-0.4-0.4-0.2-0.7-0.3-0.7-0.2-1.1-0.3c-0.6-0.1-1.1-0.3-1.6-0.4-0.5-0.2-0.9-0.4-1.2-0.6s-0.7-0.5-0.9-0.8-0.3-0.6-0.3-1 0.1-0.8 0.3-1.1c0.2-0.4 0.4-0.7 0.8-0.9 0.3-0.4 0.8-0.6 1.2-0.7 0.5-0.2 1-0.2 1.7-0.2s1.2 0.1 1.8 0.2 1 0.4 1.5 0.6c0.4 0.3 0.6 0.6 0.8 1s0.3 0.8 0.3 1.2h-2.2c0-0.2 0-0.4-0.1-0.5-0.2-0.2-0.3-0.4-0.4-0.5-0.2-0.1-0.5-0.3-0.8-0.3-0.2-0.1-0.5-0.2-0.8-0.2s-0.6 0-0.8 0.1c-0.3 0.1-0.5 0.2-0.6 0.3-0.3 0.1-0.4 0.3-0.5 0.4s-0.1 0.3-0.1 0.5 0 0.3 0.1 0.4 0.2 0.3 0.3 0.4 0.4 0.2 0.6 0.3c0.3 0 0.7 0.1 1.1 0.2 0.6 0.1 1.2 0.2 1.8 0.4s0.9 0.4 1.2 0.6 0.6 0.5 0.8 0.8 0.5 0.7 0.5 1.1-0.1 0.8-0.3 1.2-0.5 0.7-0.8 0.9c-0.4 0.3-0.8 0.5-1.3 0.6s-1.1 0.2-1.8 0.2-1.3-0.1-2-0.3c-0.5-0.2-1-0.4-1.3-0.7-0.4-0.3-0.6-0.6-0.8-1s-0.3-0.8-0.3-1.2h2.2c0 0.3 0.1 0.5 0.2 0.8s0.3 0.4 0.5 0.5 0.5 0.2 0.7 0.3 0.5 0 0.7 0c0.7 0 1.2-0.1 1.6-0.3 0.3-0.2 0.5-0.5 0.5-0.9z"/>
	<path class="st1" d="m12.1 5.8h5.3v7.9h3v1.8h-8.3v-1.8h3.1v-6.1h-3.1v-1.8zm2.9-2.5c0-0.3 0.1-0.6 0.3-0.8s0.5-0.3 0.9-0.3 0.7 0.1 0.9 0.3 0.3 0.5 0.3 0.8 0 0.6-0.3 0.8-0.5 0.3-0.9 0.3-0.7-0.1-0.9-0.3-0.3-0.4-0.3-0.8z"/>
	<path class="st1" d="m22.6 10.6c0-0.7 0.1-1.4 0.3-2 0.3-0.6 0.5-1.2 0.9-1.6s0.7-0.8 1.2-1 1-0.4 1.7-0.4c0.6 0 1.1 0.1 1.6 0.3 0.4 0.2 0.8 0.5 1.1 0.8l0.1-1h2v9.4c0 0.6-0.1 1.2-0.3 1.7s-0.5 0.9-0.9 1.3c-0.4 0.3-0.8 0.6-1.5 0.8-0.5 0.2-1.1 0.3-1.9 0.3-0.3 0-0.6 0-0.9-0.1s-0.7-0.1-1-0.3c-0.3-0.1-0.7-0.3-1-0.5s-0.6-0.5-0.8-0.7l1-1.3c0.4 0.4 0.8 0.7 1.2 0.9s0.9 0.3 1.3 0.3 0.7-0.1 1-0.2 0.5-0.3 0.7-0.4c0.2-0.2 0.4-0.4 0.5-0.7s0.2-0.6 0.2-1v-0.7c-0.3 0.3-0.7 0.6-1.1 0.8s-0.9 0.3-1.5 0.3-1.1-0.1-1.7-0.4c-0.5-0.2-0.9-0.6-1.2-1s-0.6-0.9-0.8-1.5-0.3-1.2-0.3-1.9l0.1-0.2zm2.2 0.1c0 0.4 0 0.8 0.1 1.2s0.2 0.7 0.4 1 0.4 0.5 0.7 0.7 0.6 0.2 1 0.2c0.5 0 0.9-0.1 1.2-0.3s0.6-0.5 0.7-0.8v-4.2c-0.2-0.3-0.4-0.6-0.7-0.8s-0.7-0.3-1.2-0.3c-0.4 0-0.7 0.1-1 0.2-0.3 0.2-0.5 0.4-0.7 0.7s-0.3 0.6-0.4 1-0.1 0.8-0.1 1.2v0.2z"/>
	<path class="st1" d="m63.4 15.5c-0.1-0.1-0.1-0.3-0.1-0.4 0-0.2-0.1-0.3-0.1-0.5-0.1 0.2-0.3 0.3-0.5 0.4s-0.4 0.3-0.6 0.4-0.5 0.2-0.7 0.2c-0.3 0.1-0.5 0.1-0.9 0.1-0.5 0-1-0.1-1.5-0.2s-0.8-0.3-1.1-0.6-0.6-0.6-0.9-0.9c-0.2-0.4-0.2-0.7-0.2-1.1 0-1 0.4-1.8 1.2-2.4 0.8-0.5 2-0.8 3.4-0.8h1.6v-0.8c0-0.5-0.2-0.9-0.5-1.2s-0.9-0.4-1.5-0.4c-0.3 0-0.5 0-0.7 0.1s-0.4 0.2-0.5 0.3-0.3 0.3-0.4 0.4c-0.1 0.2-0.1 0.3-0.1 0.5h-2.2c0-0.4 0.1-0.7 0.3-1.1s0.4-0.7 0.8-0.9c0.3-0.3 0.8-0.5 1.2-0.7 0.5-0.2 1-0.2 1.8-0.2 0.6 0 1.1 0.1 1.7 0.2 0.5 0.1 0.9 0.3 1.3 0.6s0.6 0.6 0.8 1 0.3 0.9 0.3 1.4v4.3c0 0.4 0 0.8 0.1 1.2s0.2 0.6 0.3 0.9v0.2h-2.3zm-2.7-1.6c0.3 0 0.5 0 0.8-0.1s0.5-0.2 0.7-0.3 0.4-0.2 0.5-0.4 0.3-0.3 0.3-0.4v-1.8h-1.5c-0.9 0-1.6 0.1-2 0.4-0.3 0.3-0.5 0.7-0.5 1.2 0 0.2 0 0.4 0.1 0.5s0.2 0.3 0.3 0.4 0.3 0.2 0.5 0.3c0.3 0.2 0.5 0.2 0.8 0.2z"/>
	<path class="st1" d="m74.7 15.5c-0.1-0.1-0.1-0.3-0.1-0.4 0-0.2-0.1-0.3-0.1-0.5-0.1 0.2-0.3 0.3-0.5 0.4s-0.4 0.3-0.6 0.4-0.5 0.2-0.7 0.2c-0.3 0.1-0.5 0.1-0.9 0.1-0.5 0-1-0.1-1.5-0.2-0.4-0.1-0.8-0.3-1.1-0.6s-0.5-0.6-0.7-0.9c-0.2-0.4-0.2-0.7-0.2-1.1 0-1 0.4-1.8 1.2-2.4 0.8-0.5 2-0.8 3.4-0.8h1.7v-0.8c0-0.5-0.2-0.9-0.5-1.2s-0.8-0.5-1.6-0.5c-0.3 0-0.5 0-0.7 0.1s-0.4 0.2-0.5 0.3-0.4 0.3-0.5 0.4c-0.1 0.2-0.1 0.3-0.1 0.5h-2.2c0-0.4 0.1-0.7 0.3-1.1s0.4-0.7 0.8-0.9c0.4-0.3 0.9-0.5 1.3-0.7 0.5-0.2 1-0.2 1.8-0.2 0.6 0 1.1 0.1 1.7 0.2 0.5 0.1 0.9 0.3 1.3 0.6s0.6 0.6 0.8 1 0 1 0 1.5v4.3c0 0.4 0 0.8 0.1 1.2s0.2 0.6 0.3 0.9v0.2h-2.2zm-2.6-1.6c0.3 0 0.5 0 0.8-0.1s0.5-0.2 0.7-0.3 0.4-0.2 0.5-0.4 0.3-0.3 0.3-0.4v-1.8h-1.4c-0.9 0-1.6 0.1-2 0.4-0.5 0.3-0.7 0.7-0.7 1.2 0 0.2 0 0.4 0.1 0.5s0.2 0.3 0.3 0.4 0.3 0.2 0.5 0.3c0.3 0.2 0.6 0.2 0.9 0.2z"/>
	<path class="st1" d="m80.1 1.8h5.4v11.9h3v1.8h-8.5v-1.8h3.2v-10.2h-3.2l0.1-1.7z"/>
	<path class="st1" d="m91.5 5.8h5.3v7.9h3v1.8h-8.3v-1.8h3.1v-6.1h-3.1v-1.8zm2.9-2.5c0-0.3 0.1-0.6 0.3-0.8s0.5-0.3 0.9-0.3 0.7 0.1 0.9 0.3 0.3 0.5 0.3 0.8-0.1 0.6-0.3 0.8-0.5 0.3-0.9 0.3-0.7-0.1-0.9-0.3-0.3-0.4-0.3-0.8z"/>
</svg>
